<svg version="1.2" xmlns="http://www.w3.org/2000/svg" viewBox="0 0 24 23" width="24" height="23"><defs><linearGradient id="P" gradientUnits="userSpaceOnUse"/><linearGradient id="g1" x1="14" y1="4.4" x2="14" y2="17.4" href="#P"><stop stop-color="#ffad97"/><stop offset="1" stop-color="#ff5b2e"/></linearGradient><linearGradient id="g2" x1="14" y1="1.3" x2="14" y2="4.7" href="#P"><stop stop-color="#ffad97"/><stop offset="1" stop-color="#ff5b2e"/></linearGradient><linearGradient id="g3" x1="19.7" y1="2.1" x2="19.7" y2="0" href="#P"><stop stop-color="#ffad97"/><stop offset="1" stop-color="#ff5b2e"/></linearGradient><linearGradient id="g4" x1="6.5" y1="13" x2="6.5" y2="20" href="#P"><stop stop-color="#ff9071"/><stop offset="1" stop-color="#ff5b2e"/></linearGradient></defs><style>.a{fill:url(#g1)}.b{fill:url(#g2)}.c{fill:url(#g3)}.d{fill:#fffaf5}.e{fill:url(#g4)}.f{fill:none;stroke:#fff;stroke-linecap:round;stroke-linejoin:round;stroke-width:.5}</style><path class="a" d="m6.5 4.4h15v13h-15z"/><path class="b" d="m5.9 1.3h16.1l1.1 3.4h-18.2z"/><path class="c" d="m18.7 2.1h2v-2.1h-2z"/><path class="d" d="m8 6.7c0-0.2 0.2-0.5 0.5-0.5h1.6c0.3 0 0.5 0.3 0.5 0.5v1.6c0 0.3-0.2 0.5-0.5 0.5h-1.6c-0.3 0-0.5-0.2-0.5-0.5z"/><path class="d" d="m8 11.9c0-0.3 0.2-0.5 0.5-0.5h1.6c0.3 0 0.5 0.2 0.5 0.5v1.6c0 0.3-0.2 0.5-0.5 0.5h-1.6c-0.3 0-0.5-0.2-0.5-0.5z"/><path class="d" d="m12.7 6.7c0-0.2 0.2-0.5 0.5-0.5h1.6c0.3 0 0.5 0.3 0.5 0.5v1.6c0 0.3-0.2 0.5-0.5 0.5h-1.6c-0.3 0-0.5-0.2-0.5-0.5z"/><path class="d" d="m12.7 11.9c0-0.3 0.2-0.5 0.5-0.5h1.6c0.3 0 0.5 0.2 0.5 0.5v1.6c0 0.3-0.2 0.5-0.5 0.5h-1.6c-0.3 0-0.5-0.2-0.5-0.5z"/><path class="d" d="m17.4 6.7c0-0.2 0.2-0.5 0.5-0.5h1.6c0.2 0 0.5 0.3 0.5 0.5v1.6c0 0.3-0.3 0.5-0.5 0.5h-1.6c-0.3 0-0.5-0.2-0.5-0.5z"/><path class="d" d="m17.4 11.9c0-0.3 0.2-0.5 0.5-0.5h1.6c0.2 0 0.5 0.2 0.5 0.5v1.6c0 0.3-0.3 0.5-0.5 0.5h-1.6c-0.3 0-0.5-0.2-0.5-0.5z"/><path fill-rule="evenodd" class="e" d="m6.5 13.6c2.1-2.1 7.3 1.6 0 6.4-7.3-4.8-2.1-8.5 0-6.4z"/><path class="f" d="m2.1 16.9h1.4l0.6-1.2 1 2.4 0.9-1.8 0.8 0.6 0.8-2.1 1 2.6 0.4-0.5h1.9"/></svg>